<svg xmlns="http://www.w3.org/2000/svg" viewBox="0 0 1200 630" fill="none">
  <rect width="1200" height="630" fill="#fafafa"/>
  <ellipse cx="180" cy="80" rx="420" ry="280" fill="#c8dcf2" fill-opacity="0.28"/>
  <ellipse cx="1040" cy="140" rx="380" ry="300" fill="#dcd4f2" fill-opacity="0.26"/>
  <ellipse cx="720" cy="560" rx="460" ry="260" fill="#f2dbe3" fill-opacity="0.22"/>
  <rect x="456" y="156" width="288" height="288" rx="52" fill="#ffffff" fill-opacity="0.72" stroke="#ffffff" stroke-width="2"/>
  <circle cx="600" cy="288" r="28" stroke="#111111" stroke-opacity="0.08" stroke-width="1.2" fill="none"/>
  <circle cx="600" cy="288" r="48" stroke="#111111" stroke-opacity="0.07" stroke-width="1.2" fill="none"/>
  <circle cx="600" cy="288" r="68" stroke="#111111" stroke-opacity="0.06" stroke-width="1.2" fill="none"/>
  <circle cx="600" cy="288" r="88" stroke="#111111" stroke-opacity="0.05" stroke-width="1.2" fill="none"/>
  <circle cx="600" cy="288" r="108" stroke="#111111" stroke-opacity="0.04" stroke-width="1.2" fill="none"/>
  <path d="M574 268a28 28 0 0 1 0 40" stroke="#111111" stroke-width="2.2" stroke-linecap="round"/>
  <path d="M586 276a16 16 0 0 1 0 24" stroke="#111111" stroke-width="2.2" stroke-linecap="round"/>
  <path d="M598 284a6 6 0 0 1 0 8" stroke="#111111" stroke-width="2.2" stroke-linecap="round"/>
  <rect x="608" y="272" width="14" height="24" rx="3" stroke="#111111" stroke-width="2"/>
  <text x="80" y="560" fill="#111111" font-family="Inter, Helvetica, Arial, sans-serif" font-size="42" font-weight="600" letter-spacing="-1.4">Fenix NFC</text>
  <text x="80" y="598" fill="#707070" font-family="Inter, Helvetica, Arial, sans-serif" font-size="22" letter-spacing="-0.3">One tap. Everything you need.</text>
</svg>
